<?xml version="1.0" encoding="UTF-8"?>
<svg width="622px" height="193px" viewBox="0 0 622 193" version="1.1" xmlns="http://www.w3.org/2000/svg" xmlns:xlink="http://www.w3.org/1999/xlink">
    <!-- Generator: Sketch 49.2 (51160) - http://www.bohemiancoding.com/sketch -->
    <title>Page 1</title>
    <desc>Created with Sketch.</desc>
    <defs>
        <polygon points="0.0005 6.52989137e-05 621.63 6.52989137e-05 621.63 192.708 0.0005 192.708"/>
    </defs>
    <g>
        <g>
            <mask>
                <use xlink:href="#path-1"/>
            </mask>
            <g/>
            <path d="M590.2385,96.2323 L581.4455,96.2323 L581.4455,143.9803 L590.2385,143.9803 L590.2385,135.5613 L593.0095,132.4883 L601.1395,143.9803 L611.8005,143.9803 L599.2125,125.7903 L610.9575,112.2093 L600.2975,112.2093 L590.2385,123.5173 L590.2385,96.2323 Z M569.0515,115.8353 L569.0515,112.2093 L560.5595,112.2093 L560.5595,143.9803 L569.3525,143.9803 L569.3525,127.8793 C569.3525,125.6673 570.0945,123.8963 571.5815,122.5643 C573.0665,121.2323 575.0745,120.5663 577.6035,120.5663 L577.6035,111.9013 C573.5485,111.9013 570.6975,113.2143 569.0515,115.8353 Z M546.2865,128.1253 C546.2865,130.8703 545.5835,133.0213 544.1775,134.5773 C542.7715,136.1353 540.9255,136.9123 538.6365,136.9123 C536.3475,136.9123 534.5015,136.1353 533.0955,134.5773 C531.6895,133.0213 530.9875,130.8703 530.9875,128.1253 C530.9875,125.3813 531.6895,123.2203 533.0955,121.6423 C534.5015,120.0653 536.3475,119.2763 538.6365,119.2763 C540.9255,119.2763 542.7715,120.0653 544.1775,121.6423 C545.5835,123.2203 546.2865,125.3813 546.2865,128.1253 Z M522.0745,128.1253 C522.0745,133.0413 523.6305,137.0253 526.7415,140.0773 C529.8525,143.1303 533.8185,144.6553 538.6365,144.6553 C543.4555,144.6553 547.4205,143.1303 550.5325,140.0773 C553.6435,137.0253 555.2005,133.0413 555.2005,128.1253 C555.2005,123.1693 553.6435,119.1743 550.5325,116.1423 C547.4205,113.1103 543.4555,111.5953 538.6365,111.5953 C533.8185,111.5953 529.8525,113.1103 526.7415,116.1423 C523.6305,119.1743 522.0745,123.1693 522.0745,128.1253 Z M521.7795,112.2093 L512.1425,112.2093 L506.0595,130.3993 L499.6155,112.2093 L493.4715,112.2093 L487.0875,130.3993 L481.0045,112.2093 L471.3675,112.2093 L483.2935,143.9803 L490.2795,143.9803 L496.5435,127.1423 L502.8065,143.9803 L509.7945,143.9803 L521.7795,112.2093 Z M469.1585,119.9523 L469.1585,112.2093 L461.8705,112.2093 L461.9305,101.7013 L453.1365,101.7013 L453.0765,112.2093 L447.3545,112.2093 L447.3545,119.9523 L453.0165,119.9523 L452.9565,133.9013 C452.9165,137.4663 453.9095,140.1393 455.9375,141.9213 C457.9655,143.7033 460.7455,144.5943 464.2795,144.5943 C465.8445,144.5943 467.4715,144.4713 469.1585,144.2263 L469.1585,136.2363 C468.0335,136.4423 467.1305,136.5443 466.4475,136.5443 C465.0825,136.5443 463.9575,136.1553 463.0745,135.3763 C462.1915,134.5993 461.7505,133.3903 461.7505,131.7513 L461.8095,119.9523 L469.1585,119.9523 Z M434.6945,120.2903 C435.7185,121.4173 436.2705,122.9843 436.3505,124.9913 L423.8235,124.9913 C423.9445,122.9843 424.5765,121.4173 425.7205,120.2903 C426.8655,119.1643 428.3805,118.6003 430.2675,118.6003 C432.1955,118.6003 433.6715,119.1643 434.6945,120.2903 Z M445.2055,127.3883 C445.2055,122.4723 443.8595,118.6103 441.1695,115.8043 C438.4785,112.9983 434.8655,111.5953 430.3285,111.5953 C425.6305,111.5953 421.8155,113.0803 418.8845,116.0503 C415.9535,119.0213 414.4885,123.0463 414.4885,128.1253 C414.4885,133.1643 415.9645,137.1803 418.9155,140.1703 C421.8665,143.1603 425.7515,144.6553 430.5695,144.6553 C434.2225,144.6553 437.3845,143.6933 440.0545,141.7683 C442.7245,139.8423 444.3415,137.3643 444.9035,134.3323 L436.0505,133.9013 C435.3665,136.2363 433.4605,137.4043 430.3285,137.4043 C428.3605,137.4043 426.8045,136.8313 425.6605,135.6843 C424.5155,134.5373 423.9035,132.9603 423.8235,130.9523 L445.2055,130.9523 L445.2055,127.3883 Z M388.8805,115.4663 L388.8805,112.2093 L380.5685,112.2093 L380.5685,143.9803 L389.3615,143.9803 L389.3615,126.3433 C389.3615,124.4183 389.8925,122.8713 390.9575,121.7033 C392.0205,120.5363 393.4165,119.9523 395.1435,119.9523 C396.8305,119.9523 398.1645,120.5053 399.1485,121.6113 C400.1325,122.7183 400.6245,124.2743 400.6245,126.2813 L400.6245,143.9803 L409.4185,143.9803 L409.4185,124.5613 C409.4185,120.5053 408.3035,117.3313 406.0755,115.0363 C403.8465,112.7423 400.9045,111.5953 397.2515,111.5953 C393.2765,111.5953 390.4855,112.8853 388.8805,115.4663 Z M599.4655,50.7853 C597.2575,52.5883 596.1525,55.0253 596.1525,58.0983 C596.1525,59.3683 596.3425,60.4843 596.7245,61.4473 C597.1065,62.4103 597.5575,63.1983 598.0805,63.8133 C598.6015,64.4273 599.3945,64.9913 600.4595,65.5033 C601.5225,66.0153 602.5075,66.4153 603.4105,66.7013 C604.3135,66.9883 605.5685,67.3363 607.1755,67.7463 C609.4635,68.3193 610.9785,68.8323 611.7215,69.2823 C612.4645,69.7333 612.8365,70.4293 612.8365,71.3713 C612.8365,72.2733 612.4845,72.9803 611.7825,73.4913 C611.0795,74.0043 610.1265,74.2593 608.9215,74.2593 C606.0305,74.2593 604.5245,72.9493 604.4045,70.3263 L595.6105,70.8183 C595.9315,74.1363 597.2265,76.6873 599.4955,78.4693 C601.7635,80.2513 604.8855,81.1423 608.8615,81.1423 C612.8765,81.1423 616.0085,80.2003 618.2575,78.3153 C620.5055,76.4313 621.6305,73.8503 621.6305,70.5723 C621.6305,67.9103 620.7565,65.9133 619.0095,64.5813 C617.2625,63.2503 614.6025,62.1133 611.0295,61.1703 C610.7485,61.0883 610.3565,60.9863 609.8545,60.8633 C609.3525,60.7403 608.9815,60.6483 608.7405,60.5863 C608.5005,60.5253 608.1885,60.4333 607.8065,60.3103 C607.4255,60.1873 607.1445,60.0853 606.9645,60.0033 C606.7835,59.9213 606.5515,59.8183 606.2715,59.6953 C605.9895,59.5723 605.7895,59.4493 605.6695,59.3273 C605.5495,59.2043 605.4185,59.0613 605.2775,58.8973 C605.1355,58.7333 605.0465,58.5493 605.0065,58.3433 C604.9665,58.1393 604.9465,57.9133 604.9465,57.6683 C604.9465,55.8653 606.1305,54.9633 608.5005,54.9633 C611.0295,54.9633 612.3545,56.2543 612.4745,58.8353 L621.2085,58.3433 C620.9265,55.2713 619.7125,52.7933 617.5645,50.9083 C615.4155,49.0243 612.4345,48.0813 608.6205,48.0813 C604.7245,48.0813 601.6735,48.9823 599.4655,50.7853 Z M584.5905,52.3213 L584.5905,48.6953 L576.0975,48.6953 L576.0975,80.4663 L584.8905,80.4663 L584.8905,64.3663 C584.8905,62.1533 585.6335,60.3823 587.1195,59.0503 C588.6045,57.7193 590.6125,57.0533 593.1415,57.0533 L593.1415,48.3883 C589.0865,48.3883 586.2355,49.7003 584.5905,52.3213 Z M559.9625,56.7763 C560.9865,57.9033 561.5385,59.4713 561.6185,61.4783 L549.0915,61.4783 C549.2125,59.4713 549.8435,57.9033 550.9885,56.7763 C552.1335,55.6503 553.6475,55.0863 555.5355,55.0863 C557.4635,55.0863 558.9385,55.6503 559.9625,56.7763 Z M570.4725,63.8743 C570.4725,58.9583 569.1275,55.0973 566.4365,52.2913 C563.7465,49.4853 560.1335,48.0813 555.5955,48.0813 C550.8975,48.0813 547.0835,49.5663 544.1525,52.5363 C541.2205,55.5073 539.7565,59.5323 539.7565,64.6113 C539.7565,69.6503 541.2315,73.6663 544.1825,76.6563 C547.1345,79.6473 551.0185,81.1423 555.8375,81.1423 C559.4905,81.1423 562.6525,80.1803 565.3225,78.2533 C567.9925,76.3293 569.6085,73.8503 570.1715,70.8183 L561.3175,70.3883 C560.6345,72.7233 558.7275,73.8913 555.5955,73.8913 C553.6285,73.8913 552.0725,73.3173 550.9275,72.1703 C549.7835,71.0243 549.1715,69.4463 549.0915,67.4383 L570.4725,67.4383 L570.4725,63.8743 Z M525.3245,56.7763 C526.3485,57.9033 526.9005,59.4713 526.9805,61.4783 L514.4535,61.4783 C514.5745,59.4713 515.2065,57.9033 516.3505,56.7763 C517.4955,55.6503 519.0095,55.0863 520.8975,55.0863 C522.8255,55.0863 524.3005,55.6503 525.3245,56.7763 Z M535.8355,63.8743 C535.8355,58.9583 534.4895,55.0973 531.7995,52.2913 C529.1085,49.4853 525.4955,48.0813 520.9585,48.0813 C516.2595,48.0813 512.4455,49.5663 509.5145,52.5363 C506.5835,55.5073 505.1185,59.5323 505.1185,64.6113 C505.1185,69.6503 506.5935,73.6663 509.5455,76.6563 C512.4965,79.6473 516.3815,81.1423 521.1995,81.1423 C524.8525,81.1423 528.0145,80.1803 530.6845,78.2533 C533.3545,76.3293 534.9705,73.8503 535.5335,70.8183 L526.6795,70.3883 C525.9965,72.7233 524.0905,73.8913 520.9585,73.8913 C518.9905,73.8913 517.4345,73.3173 516.2905,72.1703 C515.1455,71.0243 514.5335,69.4463 514.4535,67.4383 L535.8355,67.4383 L535.8355,63.8743 Z M479.4015,51.9523 L479.4015,48.6953 L471.0905,48.6953 L471.0905,80.4663 L479.8835,80.4663 L479.8835,62.8293 C479.8835,60.9043 480.4145,59.3573 481.4785,58.1903 C482.5425,57.0223 483.9375,56.4393 485.6655,56.4393 C487.3515,56.4393 488.6855,56.9913 489.6705,58.0983 C490.6535,59.2043 491.1455,60.7613 491.1455,62.7683 L491.1455,80.4663 L499.9395,80.4663 L499.9395,61.0473 C499.9395,56.9913 498.8255,53.8173 496.5965,51.5223 C494.3685,49.2293 491.4255,48.0813 487.7725,48.0813 C483.7985,48.0813 481.0075,49.3723 479.4015,51.9523 Z M456.8165,64.6113 C456.8165,67.3573 456.1135,69.5073 454.7085,71.0643 C453.3015,72.6213 451.4565,73.3993 449.1675,73.3993 C446.8785,73.3993 445.0315,72.6213 443.6265,71.0643 C442.2195,69.5073 441.5175,67.3573 441.5175,64.6113 C441.5175,61.8673 442.2195,59.7063 443.6265,58.1283 C445.0315,56.5523 446.8785,55.7623 449.1675,55.7623 C451.4565,55.7623 453.3015,56.5523 454.7085,58.1283 C456.1135,59.7063 456.8165,61.8673 456.8165,64.6113 Z M432.6045,64.6113 C432.6045,69.5273 434.1605,73.5123 437.2715,76.5643 C440.3835,79.6163 444.3485,81.1423 449.1675,81.1423 C453.9855,81.1423 457.9505,79.6163 461.0625,76.5643 C464.1745,73.5123 465.7305,69.5273 465.7305,64.6113 C465.7305,59.6553 464.1745,55.6613 461.0625,52.6283 C457.9505,49.5973 453.9855,48.0813 449.1675,48.0813 C444.3485,48.0813 440.3835,49.5973 437.2715,52.6283 C434.1605,55.6613 432.6045,59.6553 432.6045,64.6113 Z M418.5725,80.4663 L427.3655,80.4663 L427.3655,48.6953 L418.5725,48.6953 L418.5725,80.4663 Z M419.2955,34.5003 C418.2505,35.5663 417.7285,36.8363 417.7285,38.3103 C417.7285,39.7853 418.2305,41.0453 419.2345,42.0893 C420.2375,43.1343 421.4825,43.6563 422.9685,43.6563 C424.4535,43.6563 425.7095,43.1343 426.7325,42.0893 C427.7575,41.0453 428.2685,39.7853 428.2685,38.3103 C428.2685,36.7953 427.7575,35.5143 426.7325,34.4693 C425.7095,33.4253 424.4535,32.9023 422.9685,32.9023 C421.5625,32.9023 420.3385,33.4353 419.2955,34.5003 Z M402.1605,58.0983 C403.5455,59.6553 404.2385,61.8263 404.2385,64.6113 C404.2385,67.3983 403.5455,69.5693 402.1605,71.1253 C400.7745,72.6833 398.9575,73.4613 396.7095,73.4613 C394.5015,73.4613 392.7235,72.7333 391.3795,71.2793 C390.0335,69.8253 389.3615,67.8483 389.3615,65.3493 L389.3615,63.8743 C389.3615,61.3763 390.0335,59.3993 391.3795,57.9443 C392.7235,56.4903 394.5015,55.7623 396.7095,55.7623 C398.9575,55.7623 400.7745,56.5413 402.1605,58.0983 Z M388.8805,52.0143 L388.8805,48.6953 L380.5685,48.6953 L380.5685,96.1363 L389.3615,96.1363 L389.3615,77.7623 C391.3685,80.0163 394.2795,81.1423 398.0945,81.1423 C402.5515,81.1423 406.1755,79.6273 408.9665,76.5943 C411.7565,73.5633 413.1515,69.5693 413.1515,64.6113 C413.1515,59.6553 411.7565,55.6613 408.9665,52.6283 C406.1755,49.5973 402.5515,48.0813 398.0945,48.0813 C393.8795,48.0813 390.8065,49.3933 388.8805,52.0143 Z M116.8055,89.4823 L116.8055,48.6443 L76.9935,48.6443 L76.9935,0.8773 L30.5455,0.8773 L30.5455,48.6443 L0.0005,48.6443 L0.0005,89.4823 L30.5455,89.4823 L30.5455,113.3033 C30.5455,144.3143 42.8015,172.3893 62.6175,192.7083 L95.4555,159.0243 C84.0505,147.3223 76.9935,131.1583 76.9935,113.3033 L76.9935,89.4823 L116.8055,89.4823 Z M140.0305,89.4823 L116.8055,89.4823 L116.8055,113.3033 C116.8055,126.4593 127.2045,137.1253 140.0305,137.1253 C152.8565,137.1253 163.2555,126.4593 163.2555,113.3033 C163.2555,100.1473 152.8565,89.4823 140.0305,89.4823 Z M136.7125,48.6443 C147.7075,48.6443 156.6195,39.5033 156.6195,28.2263 C156.6195,16.9493 147.7075,7.8073 136.7125,7.8073 C125.7185,7.8073 116.8055,16.9493 116.8055,28.2263 L116.8055,48.6443 L136.7125,48.6443 Z M334.0905,60.7233 L334.0905,143.9313 L287.6105,143.9313 L287.6105,63.1943 C287.6105,50.0383 277.2385,41.2893 264.3855,43.2853 C254.3935,44.8373 246.2715,51.8463 241.1625,57.3763 L241.1625,143.9313 L195.5555,143.9313 C200.3445,134.8153 203.0675,124.3853 203.0675,113.3033 C203.0675,94.8333 195.5055,78.1863 183.3965,66.4023 C191.5485,55.9313 196.4305,42.6693 196.4305,28.2263 C196.4305,18.3943 194.1595,9.1113 190.1475,0.8763 L231.1895,0.8763 C232.2275,4.9983 233.0295,9.2133 233.5965,13.5063 C242.8835,7.2443 253.3315,2.8313 264.3855,0.9693 C302.8825,-5.5167 334.0905,21.2343 334.0905,60.7233 Z" mask="url(#mask-2)"/>
        </g>
    </g>
</svg>