<svg xmlns="http://www.w3.org/2000/svg" width="25" viewBox="0 0 42 21"><path fill="#f9423a" d="M0 21h42V0H0z"></path><path d="M5.117 4.186L3 16.833h3.095l.706-4.21h2.63c2.421 0 4.105-1.42 4.426-3.99.385-2.722-1.251-4.447-3.672-4.447H5.117zM7.73 7.077h2.004c.77 0 1.123.575 1.01 1.319-.128.913-.706 1.353-1.459 1.353H7.281l.449-2.671zm17.449 1.556c.369-2.722-1.267-4.447-3.688-4.447h-5.003l-2.117 12.647h3.095l.706-4.227h1.491l1.411 4.227h3.239L22.742 12.2c1.283-.575 2.133-1.792 2.437-3.567h0zm-6.526 1.082l.449-2.638h1.956c.77 0 1.106.575.994 1.302-.144.896-.689 1.336-1.443 1.336h-1.956zM33.268 4c-3.608 0-6.35 2.452-6.735 6.323-.417 4.024 2.101 6.695 5.917 6.695 3.576 0 6.334-2.452 6.719-6.323C39.586 6.671 37.068 4 33.268 4h0zm-.048 2.891c1.828 0 2.967 1.268 2.838 3.432-.144 2.316-1.507 3.804-3.576 3.804-1.828 0-2.966-1.268-2.838-3.432.144-2.316 1.507-3.804 3.576-3.804h0z" fill="#fff"></path></svg>
