<svg xmlns="http://www.w3.org/2000/svg" class="pro-badge" width="36" height="18" viewBox="0 0 36 18" fill="none">
<rect width="35.8184" height="18" rx="2" fill="#F9432A"/>
<path d="M5.62621 4.14288L4 13.8579H6.37748L6.9198 10.6239H8.94008C10.7998 10.6239 12.0934 9.53311 12.34 7.55892C12.6357 5.46797 11.379 4.14288 9.51928 4.14288H5.62621ZM7.63343 6.36365H9.17284C9.76433 6.36365 10.0355 6.80535 9.94869 7.37686C9.85036 8.0782 9.40636 8.41619 8.82793 8.41619H7.28852L7.63343 6.36442V6.36365ZM21.0372 7.55892C21.3206 5.46797 20.0639 4.14288 18.2042 4.14288H14.361L12.7348 13.8579H15.1123L15.6546 10.6108H16.8L17.8839 13.8579H20.3719L19.1652 10.299C20.1507 9.85727 20.8037 8.92242 21.0372 7.55892ZM16.0241 8.39008L16.369 6.36365H17.8716C18.4631 6.36365 18.7212 6.80535 18.6351 7.3638C18.5245 8.05208 18.1059 8.39008 17.5267 8.39008H16.0241ZM27.2509 4C24.4793 4 22.373 5.88355 22.0773 8.85712C21.757 11.9482 23.6912 14 26.6225 14C29.3695 14 31.4881 12.1165 31.7838 9.14288C32.1042 6.05177 30.1699 4 27.2509 4ZM27.214 6.22077C28.6182 6.22077 29.4932 7.19481 29.3941 8.85712C29.2835 10.6362 28.2364 11.7792 26.6471 11.7792C25.2429 11.7792 24.3687 10.8052 24.467 9.14288C24.5777 7.3638 25.6247 6.22077 27.214 6.22077Z" fill="white"/>
</svg>
