<svg viewBox="0 0 200 62" width="200" height="62" version="1.1"
  xmlns="http://www.w3.org/2000/svg">
  <path d="M132.371369,25.8838026 L129.71371,25.8838026 L129.71371,24.8351674 C129.394666,25.2326913 128.98244,25.545372 128.51358,25.7454856 C127.952435,25.9926121 127.344144,26.1144583 126.731083,26.1025363 C125.416655,26.144243 124.149636,25.6096004 123.262612,24.6389503 C122.363856,23.6653708 121.914478,22.3787019 121.914478,20.7789435 C121.914478,19.1791851 122.363856,17.8925161 123.262612,16.9189366 C124.152443,15.9468679 125.423486,15.4131913 126.740735,15.4585673 C128.004142,15.4585673 128.946871,15.8209791 129.568922,16.5458026 L129.568922,10.5241919 L132.381021,10.5241919 L132.371369,25.8838026 Z M127.194403,17.9386217 C126.527714,17.9165147 125.885518,18.1909967 125.440863,18.6881064 C124.964908,19.2797972 124.726333,20.0274424 124.771622,20.7853768 C124.725824,21.5394374 124.964638,22.2832396 125.440863,22.8697805 C126.386588,23.8377184 127.937036,23.8592867 128.909333,22.9180306 C129.368974,22.3841122 129.600113,21.6908749 129.552834,20.9880272 L129.552834,20.5344764 C129.59345,19.8393356 129.36277,19.1555453 128.909333,18.6269896 C128.465164,18.158915 127.839019,17.9075823 127.194403,17.9386217 Z M136.322465,10.5853086 C136.779098,10.5761608 137.218809,10.758063 137.535464,11.0871095 C137.860015,11.4152638 138.037634,11.8609377 138.027742,12.3223117 C138.036086,12.7777155 137.858305,13.2168264 137.535464,13.5382139 C137.219823,13.8691097 136.779734,14.0523356 136.322465,14.0432315 C135.869109,14.0515006 135.433314,13.8681168 135.122335,13.5382139 C134.467702,12.8529285 134.476252,11.7716126 135.14164,11.0967595 C135.446931,10.7694585 135.874824,10.5841251 136.322465,10.5853086 Z M137.738167,25.8838026 L134.90998,25.8838026 L134.90998,15.6708677 L137.741384,15.6708677 L137.738167,25.8838026 Z M144.527102,15.4682173 C145.895614,15.4682173 146.889823,15.8896014 147.509729,16.7323696 L147.509729,15.6708677 L150.164171,15.6708677 L150.164171,26.2665866 C150.164171,27.741967 149.706213,28.9214135 148.790296,29.8049262 C147.87438,30.6884389 146.646365,31.1237619 145.106253,31.1108952 C143.604751,31.1108952 142.416419,30.7592057 141.541258,30.0558267 C140.666602,29.3328222 140.098623,28.305208 139.95181,27.1801215 L142.760692,27.0804047 C142.810128,27.5525425 143.065671,27.9787297 143.458891,28.2448401 C143.921115,28.5387114 144.46247,28.6835594 145.009728,28.6597908 C145.631921,28.69506 146.244468,28.4939943 146.724658,28.0968732 C147.171159,27.6760337 147.407022,27.0782751 147.368159,26.4660203 L147.368159,25.005651 C146.707498,25.7304745 145.764769,26.0928863 144.539972,26.0928863 C143.221106,26.1383964 141.948612,25.6034287 141.058632,24.6293003 C140.162021,23.6557208 139.713715,22.3690518 139.713715,20.7692934 C139.713715,19.169535 140.162021,17.8828661 141.058632,16.9092866 C141.94976,15.9469524 143.216216,15.4207691 144.527102,15.4682173 Z M144.990423,17.9386217 C144.323733,17.9165147 143.681538,18.1909967 143.236883,18.6881064 C142.348821,19.9406228 142.348821,21.6172642 143.236883,22.8697805 C143.688103,23.3402267 144.309139,23.6101886 144.961022,23.619257 C145.612905,23.6283254 146.241214,23.3757432 146.705353,22.9180306 C147.15879,22.3894749 147.38947,21.7056847 147.348854,21.0105439 L147.348854,20.537693 C147.38947,19.8425522 147.15879,19.158762 146.705353,18.6302063 C146.261763,18.1609479 145.63554,17.9084092 144.990423,17.9386217 Z M154.038047,10.5853086 C154.493718,10.5762749 154.932391,10.7582305 155.247828,11.0871095 C155.573243,11.4149367 155.751993,11.8605379 155.743324,12.3223117 C155.750446,12.7781169 155.571532,13.2171545 155.247828,13.5382139 C154.93458,13.8706393 154.494738,14.0542491 154.038047,14.0432315 C153.583578,14.052414 153.146436,13.868955 152.8347,13.5382139 C152.183431,12.8515991 152.19196,11.7729951 152.854005,11.0967595 C153.160057,10.7686358 153.589288,10.5832279 154.038047,10.5853086 Z M155.437661,25.8838026 L152.609474,25.8838026 L152.609474,15.6708677 L155.437661,15.6708677 L155.437661,25.8838026 Z M161.891976,18.1637888 L161.872671,21.9594622 C161.836456,22.3920674 161.991676,22.8188118 162.297382,23.1271143 C162.599152,23.3831534 162.986212,23.5163502 163.381681,23.5002483 C163.675586,23.4925872 163.968332,23.4603075 164.256842,23.4037481 L164.256842,25.9770861 C163.736832,26.0525133 163.212152,26.0912092 162.6867,26.0928863 C161.547703,26.0928863 160.653237,25.8066024 160.003301,25.2340347 C159.353365,24.661467 159.031614,23.8036877 159.038049,22.6606968 L159.057354,18.1734388 L157.236246,18.1734388 L157.236246,15.6708677 L159.076659,15.6708677 L159.095964,12.290145 L161.927369,12.290145 L161.924151,15.6708677 L164.269712,15.6708677 L164.269712,18.1605721 L161.891976,18.1637888 Z M170.125571,15.4778673 C171.483358,15.4778673 172.51725,15.8263402 173.227246,16.5232859 C173.937242,17.2202316 174.29224,18.2420612 174.29224,19.5887747 L174.29224,25.8934526 L171.560578,25.8934526 L171.560578,25.0635511 C170.89777,25.7635856 169.966254,26.1454668 169.002662,26.1121863 C168.119993,26.1622247 167.250049,25.883777 166.560576,25.3305349 C165.939993,24.7521058 165.612693,23.9252082 165.669327,23.0788642 C165.669327,21.1295608 167.006736,20.0959367 169.681555,19.977992 L171.464053,19.8782752 L171.464053,19.4826245 C171.464053,18.4275559 171.035052,17.9000217 170.177051,17.9000217 C169.790465,17.8742016 169.41193,18.0187598 169.141015,18.2956724 C168.901102,18.5587469 168.773015,18.9048388 168.783872,19.2606741 L165.952467,19.1416572 C165.964201,18.1669968 166.391452,17.2436719 167.126857,16.6037027 C167.939038,15.8387649 169.02327,15.4299671 170.138441,15.4682173 L170.125571,15.4778673 Z M171.464053,21.7825452 L169.951826,21.8822621 C168.984429,21.9208622 168.499659,22.2757684 168.497514,22.9469807 C168.497514,23.5688707 168.885759,23.8787434 169.66225,23.876599 C170.129705,23.8924962 170.587036,23.7381869 170.949252,23.4423482 C171.29574,23.1322017 171.481739,22.6809464 171.454401,22.216796 L171.464053,21.7825452 Z M179.215022,25.8934526 L176.386836,25.8934526 L176.386836,10.5241919 L179.215022,10.5241919 L179.215022,25.8934526 Z M128.08887,35.8973037 C129.41359,35.8504527 130.692543,36.3851705 131.589515,37.3608897 C132.488271,38.3344692 132.936577,39.6211381 132.934432,41.2208966 C132.932287,42.820655 132.483981,44.1073239 131.589515,45.0809034 C130.689443,46.050788 129.411332,46.5804557 128.08887,46.5316227 C126.861928,46.5316227 125.925634,46.1692109 125.279988,45.4443874 L125.279988,51.3534146 L122.451801,51.3534146 L122.451801,36.0935207 L125.125548,36.0935207 L125.125548,37.161456 C125.743309,36.3186878 126.731083,35.8973037 128.08887,35.8973037 Z M127.644854,38.3677081 C126.998456,38.3412706 126.372518,38.5972164 125.929924,39.0689427 C125.477081,39.597836 125.246484,40.2813797 125.286423,40.9764294 L125.286423,41.452497 C125.246484,42.1475467 125.477081,42.8310905 125.929924,43.3599837 C126.394067,43.8180937 127.022791,44.0706605 127.674948,44.0609835 C128.327105,44.0513065 128.948055,43.7801964 129.398394,43.3085169 C130.287426,42.0563095 130.287426,40.3790503 129.398394,39.1268428 C128.956456,38.6230222 128.311509,38.3443262 127.641637,38.3677081 L127.644854,38.3677081 Z M136.094022,31.014395 C136.550713,31.0033774 136.990555,31.1869872 137.303804,31.5194126 C137.964971,32.2027578 137.964971,33.2871718 137.303804,33.970517 C136.988366,34.299396 136.549693,34.4813516 136.094022,34.4723179 C135.640045,34.4823319 135.202977,34.3000727 134.890675,33.970517 C134.239406,33.2839021 134.247935,32.2052982 134.90998,31.5290626 C135.214708,31.2005737 135.642675,31.0140422 136.090804,31.014395 L136.094022,31.014395 Z M137.509724,46.312889 L134.67832,46.312889 L134.67832,36.0935207 L137.509724,36.0935207 L137.509724,46.312889 Z M140.695054,37.3608897 C142.873016,35.4089323 146.171536,35.4089323 148.349498,37.3608897 C149.351215,38.3344692 149.852073,39.6211381 149.852073,41.2208966 C149.91023,42.6520169 149.369229,44.0426337 148.35915,45.0583867 C146.185738,47.0221966 142.878119,47.0221966 140.704706,45.0583867 C139.689418,44.0427332 139.144699,42.6492222 139.202132,41.2144632 C139.193552,39.625427 139.69012,38.3409025 140.691836,37.3608897 L140.695054,37.3608897 Z M146.306382,39.1300595 C145.84134,38.6431647 145.197274,38.3677051 144.523885,38.3677051 C143.850495,38.3677051 143.206429,38.6431647 142.741387,39.1300595 C142.261138,39.7148892 142.01876,40.4590599 142.062493,41.2144632 C142.018342,41.9669762 142.26091,42.7082823 142.741387,43.2892169 C143.209614,43.7702733 143.85249,44.0416437 144.523885,44.0416437 C145.19528,44.0416437 145.838156,43.7702733 146.306382,43.2892169 C146.785724,42.7076575 147.028142,41.9668092 146.985276,41.2144632 C147.026524,40.4588458 146.783166,39.7151888 146.303165,39.1300595 L146.306382,39.1300595 Z M156.943454,35.8973037 C158.00379,35.8514799 159.03463,36.2529718 159.78451,37.003839 C160.498796,37.7436737 160.857012,38.7644311 160.859157,40.0661112 L160.859157,46.312889 L158.03097,46.312889 L158.03097,40.6225955 C158.064435,40.0801102 157.894679,39.5446001 157.554779,39.1204095 C157.226957,38.7593611 156.75498,38.5635416 156.267778,38.5864419 C155.758437,38.5669698 155.266402,38.7729121 154.92286,39.1493595 C154.565432,39.5620435 154.381029,40.0966734 154.40806,40.6418955 L154.40806,46.312889 L151.576655,46.312889 L151.576655,36.0935207 L154.250402,36.0935207 L154.250402,37.142156 C154.765203,36.3122545 155.661814,35.8973037 156.940236,35.8973037 L156.943454,35.8973037 Z M172.406782,42.1247815 L165.524539,42.1247815 C165.518077,42.6893218 165.730207,43.2344952 166.11656,43.6462675 C166.519834,44.0296915 167.063437,44.2298531 167.619135,44.1995352 C168.627286,44.1995352 169.240757,43.8242567 169.459548,43.0736999 L172.307039,43.2120168 C172.127609,44.1852957 171.56556,45.0461088 170.74655,45.6020044 C169.856368,46.2319436 168.786657,46.5579631 167.696355,46.5316227 C166.145518,46.5316227 164.894981,46.050194 163.944744,45.0873368 C162.994508,44.1244795 162.520462,42.8378105 162.522607,41.2273299 C162.522607,39.5932603 162.993435,38.2980136 163.935092,37.3415896 C164.910925,36.3735849 166.245553,35.8550208 167.619135,35.9101704 C169.075592,35.9101704 170.238184,36.3615768 171.10691,37.2643895 C171.972419,38.1650578 172.393912,39.40991 172.393912,40.9892961 L172.406782,42.1247815 Z M167.59983,38.1489744 C167.05834,38.1244991 166.530079,38.3206596 166.135865,38.692592 C165.74956,39.1032912 165.531414,39.6439244 165.524539,40.2076447 L169.556073,40.2076447 C169.565107,39.6550032 169.375601,39.117447 169.021967,38.692592 C168.649346,38.3135655 168.130338,38.1151724 167.59983,38.1489744 Z M183.549001,42.1247815 L176.673194,42.1247815 C176.666731,42.6893218 176.878862,43.2344952 177.265214,43.6462675 C177.668488,44.0296915 178.212091,44.2298531 178.767789,44.1995352 C179.774868,44.1995352 180.376542,43.8231845 180.608202,43.0736999 L183.455694,43.2120168 C183.276263,44.1852957 182.714214,45.0461088 181.895204,45.6020044 C181.005022,46.2319436 179.935311,46.5579631 178.845009,46.5316227 C177.294172,46.5316227 176.043635,46.050194 175.093399,45.0873368 C174.143162,44.1244795 173.669116,42.8378105 173.671261,41.2273299 C173.671261,39.5932603 174.14209,38.2980136 175.083746,37.3415896 C176.05958,36.3735849 177.394208,35.8550208 178.767789,35.9101704 C180.224246,35.9101704 181.386838,36.3615768 182.255565,37.2643895 C183.121073,38.1650578 183.542566,39.40991 183.542566,40.9892961 L183.549001,42.1247815 Z M178.742049,38.1489744 C178.2016,38.1250096 177.674528,38.3211595 177.281302,38.692592 C176.892544,39.1017182 176.673993,39.6433555 176.669976,40.2076447 L180.70151,40.2076447 C180.710544,39.6550032 180.521038,39.117447 180.167404,38.692592 C179.793791,38.3130534 179.273587,38.1146521 178.742049,38.1489744 Z M190.830215,35.9970206 L190.830215,38.7826589 C190.128686,38.746754 189.439387,38.9764611 188.899712,39.4259934 C188.417778,39.8599188 188.154685,40.4862234 188.182209,41.1340464 L188.182209,46.312889 L185.360457,46.312889 L185.360457,36.0935207 L188.092118,36.0935207 L188.092118,37.2611728 C188.619789,36.4184047 189.543213,35.9970206 190.830215,35.9970206 Z M195.810913,35.8973037 C197.037854,35.8973037 197.996671,36.2007432 198.687362,36.807622 C199.381382,37.4162812 199.804046,38.2764409 199.861751,39.1976096 L197.049652,39.3552266 C197.011042,38.5253251 196.582041,38.1103743 195.76265,38.1103743 C195.001174,38.1103743 194.620436,38.3998749 194.620436,38.9788759 C194.619747,39.052241 194.626212,39.1254986 194.639741,39.1976096 C194.652007,39.2634024 194.68205,39.3245846 194.726613,39.3745266 C194.771659,39.42921 194.813486,39.4742434 194.852096,39.5128435 C194.907814,39.5650547 194.973465,39.6055295 195.045146,39.6318604 L195.267154,39.7315772 C195.325069,39.7573106 195.41516,39.7894773 195.540642,39.8312941 L195.83987,39.9181442 L196.197013,40.0082111 C196.361106,40.0468111 196.486589,40.0821945 196.576679,40.1079279 C197.496215,40.3079345 198.369584,40.6801116 199.150683,41.2048132 C199.733839,41.6690372 200.049465,42.3916556 199.993669,43.1348166 C200.037675,44.0878606 199.637185,45.0074414 198.90937,45.6245211 C198.186504,46.2313999 197.178352,46.5348394 195.884915,46.5348394 C194.591478,46.5348394 193.586544,46.2485555 192.870113,45.6759878 C192.125135,45.0687324 191.671678,44.1749052 191.621721,43.2152334 L194.449908,43.0543998 C194.488518,43.8993124 194.973289,44.3217687 195.90422,44.3217687 C196.229497,44.3391421 196.551843,44.2523792 196.824427,44.074085 C197.045978,43.9189141 197.174244,43.6624483 197.165482,43.3921504 C197.179797,43.1184879 197.040974,42.8595018 196.805122,42.7198659 C196.339407,42.4950863 195.847692,42.328703 195.341157,42.2244983 C194.826356,42.0926148 194.420951,41.9832479 194.131375,41.9028311 C193.806627,41.7957513 193.489512,41.6667889 193.182211,41.5168304 C192.892096,41.3905221 192.631346,41.2054159 192.416445,40.9732128 C192.230602,40.7442229 192.082851,40.4868116 191.978864,40.2108614 C191.546055,38.9950723 191.894875,37.6383333 192.860461,36.7818886 C193.583327,36.1921654 194.571101,35.8973037 195.823783,35.8973037 L195.810913,35.8973037 Z M85.0676118,0.311256991 C81.5156333,0.934837039 78.1379708,2.31011893 75.1609142,4.34496418 C74.9806481,2.97698913 74.7217467,1.62052533 74.3854956,0.28230694 L61.1937255,0.28230694 C64.5292036,7.15137417 63.6879693,15.3160891 59.0219097,21.3611612 C65.6721947,27.9069004 67.2604998,38.0297253 62.9343957,46.2968056 L77.606218,46.2968056 L77.606218,18.456506 C79.250363,16.6776862 81.8629769,14.4227988 85.0804818,13.9242146 C89.2149756,13.2808801 92.5515282,16.0954684 92.5515282,20.3286093 L92.5515282,46.2968056 L107.496838,46.2968056 L107.496838,19.5308746 C107.496838,6.83145194 97.4517881,-1.77314672 85.0676118,0.311256991 Z M43.9865094,15.648351 C46.6599055,15.7177102 49.1088411,14.1609499 50.1800371,11.7111963 C51.251233,9.26144266 50.7311298,6.40709192 48.8646601,4.4923457 C46.9981904,2.57759948 44.1574637,1.98419191 41.6802656,2.9915769 C39.2030675,3.99896189 37.5832657,6.40630172 37.5836746,9.07990595 L37.5836746,15.648351 L43.9865094,15.648351 Z M45.054721,28.7852411 L37.5836746,28.7852411 L37.5836746,36.4473547 C37.5836746,40.6772789 40.9266622,44.1094684 45.054721,44.1094684 C49.1827798,44.1094684 52.5257673,40.6772789 52.5257673,36.4473547 C52.5257673,32.2174305 49.1827798,28.7852411 45.054721,28.7852411 Z M37.5836746,28.7852411 L37.5836746,15.648351 L24.7715702,15.648351 L24.7715702,0.28230694 L9.82625994,0.28230694 L9.82625994,15.648351 L0,15.648351 L0,28.7852411 L9.82625994,28.7852411 L9.82625994,36.4473547 C9.79378626,45.9836006 13.4990598,55.1531655 20.1480156,61.9909502 L30.7110842,51.1571976 C26.8858306,47.2187585 24.7539963,41.9401969 24.7715702,36.4505714 L24.7715702,28.7852411 L37.5836746,28.7852411 Z" fill="#f9423a"></path>
</svg>
