<svg xmlns="http://www.w3.org/2000/svg" width="24" height="24" viewBox="0 0 24 24">
    <path d="M23.6264882,0.147321435 C23.9211324,0.36160821 24.041667,0.647319645 23.9880953,1.00446429 L20.5595238,21.5758929 C20.5148808,21.8348228 20.372025,22.0357136 20.1309524,22.1785714 C20.0059518,22.2500004 19.8675603,22.2857143 19.7157738,22.2857143 C19.6175591,22.2857143 19.5104172,22.2633931 19.3943453,22.21875 L13.3273811,19.7410714 L10.0863096,23.6919643 C9.92559446,23.8973224 9.70684665,24 9.43005955,24 C9.31398754,24 9.21577423,23.9821431 9.1354167,23.9464286 C8.96577298,23.8839282 8.82961363,23.7790186 8.72693455,23.6316964 C8.62425546,23.4843742 8.5729167,23.3214294 8.5729167,23.1428571 L8.5729167,18.46875 L20.1443453,4.28571429 L5.82738097,16.6741071 L0.53720241,14.5044643 C0.20684361,14.3794636 0.028273965,14.1339305 0.00148812,13.7678571 C-0.01636911,13.4107125 0.1264866,13.1473222 0.430059555,12.9776786 L22.7157738,0.12053571 C22.8497031,0.040178175 22.9925588,0 23.1443453,0 C23.3229176,0 23.4836303,0.049106655 23.6264882,0.147321435 L23.6264882,0.147321435 L23.6264882,0.147321435 L23.6264882,0.147321435 Z"/>
</svg>