<?xml version="1.0" encoding="UTF-8"?>
<svg width="16px" height="16px" viewBox="0 0 16 16" version="1.1" xmlns="http://www.w3.org/2000/svg" xmlns:xlink="http://www.w3.org/1999/xlink">
    <!-- Generator: Sketch 52.5 (67469) - http://www.bohemiancoding.com/sketch -->
    <title>icons/socialmedia/facebook</title>
    <desc>Created with Sketch.</desc>
    <g>
        <path d="M15.1169495,0 L0.883050511,0 C0.395244536,0 0,0.395301523 0,0.883043894 L0,15.1168962 C0,15.6045786 0.395244536,16 0.883050511,16 L8.54610649,16 L8.54610649,9.80394537 L6.46101621,9.80394537 L6.46101621,7.38921299 L8.54610649,7.38921299 L8.54610649,5.60843778 C8.54610649,3.54188726 9.80827523,2.41659079 11.6518305,2.41659079 C12.534881,2.41659079 13.2938968,2.48229454 13.5151091,2.51166938 L13.5151091,4.67138013 L12.2364543,4.67197962 C11.2338653,4.67197962 11.0396901,5.14839169 11.0396901,5.84751307 L11.0396901,7.38921299 L13.4308805,7.38921299 L13.1195048,9.80394537 L11.0396901,9.80394537 L11.0396901,16 L15.1169495,16 C15.6045756,16 16,15.6045786 16,15.1168962 L16,0.883043894 C16,0.395301523 15.6045756,0 15.1169495,0"/>
    </g>
</svg>