<?xml version="1.0" encoding="UTF-8"?>
<svg width="16px" height="16px" viewBox="0 0 16 16" version="1.1" xmlns="http://www.w3.org/2000/svg" xmlns:xlink="http://www.w3.org/1999/xlink">
    <!-- Generator: Sketch 52.5 (67469) - http://www.bohemiancoding.com/sketch -->
    <title>icons/socialmedia/linkedin</title>
    <desc>Created with Sketch.</desc>
    <g>
        <path d="M0.333333333,5.44680851 L3.66666667,5.44680851 L3.66666667,16 L0.333333333,16 L0.333333333,5.44680851 Z M9,9.87234043 L9,16 L5.66666667,16 L5.66666667,7.82978723 C5.66666667,7.82978723 5.61111111,5.80614657 5.61111111,5.44680851 L8.88888889,5.44680851 L9,6.90307329 C9.66666667,5.88179669 10.6666667,5.10638298 12,5.10638298 C14.3333333,5.10638298 16,6.80851064 16,9.87234043 L16,16 L12.6666667,16 L12.6666667,10.212766 C12.6666667,8.5106383 11.8518519,7.82978723 10.8518519,7.82978723 C9.85185185,7.82978723 9,8.5106383 9,9.87234043 Z M1.98148148,3.74468085 L1.96296296,3.74468085 C0.777777778,3.74468085 0,2.91252955 0,1.87234043 C0,0.813238771 0.796296296,0 2.01851852,0 C3.22222222,0 3.98148148,0.813238771 4,1.87234043 C4,2.91252955 3.22222222,3.74468085 1.98148148,3.74468085 Z"/>
    </g>
</svg>