<?xml version="1.0" encoding="UTF-8"?>
<svg width="24px" height="24px" viewBox="0 0 24 24" version="1.1" xmlns="http://www.w3.org/2000/svg" xmlns:xlink="http://www.w3.org/1999/xlink">
    <!-- Generator: Sketch 51.3 (57544) - http://www.bohemiancoding.com/sketch -->
    <title>Artboard</title>
    <desc>Created with Sketch.</desc>
    <defs/>
    <g>
        <path d="M17.6775,10.485 L12.9725,15.0008333 C12.7058333,15.255 12.3641667,15.3825 12.0216667,15.3825 C11.68,15.3825 11.3375,15.255 11.0708333,15.0008333 L6.36583333,10.485 C5.81833333,9.96166667 5.80166667,9.0925 6.325,8.54666667 C6.85,7.99916667 7.7175,7.98083333 8.2625,8.505 L12.0216667,12.1066667 L15.7858333,8.505 C16.3358333,7.97916667 17.2,7.99916667 17.7241667,8.54583333 C18.25,9.08333333 18.2366667,9.95833333 17.6866667,10.4841667 L17.6775,10.485 Z M21.9133333,4.19666667 C21.6641667,3.48166667 20.9758333,3 20.2125,3 L3.81583333,3 C3.06583333,3 2.385,3.47 2.11833333,4.17083333 C2.04,4.37916667 2,4.59666667 2,4.81583333 L2,10.8533333 L2.07,12.0541667 C2.36,14.785 3.77583333,17.1725 5.97166667,18.8366667 C6.00916667,18.8666667 6.05,18.895 6.09083333,18.9241667 L6.11583333,18.9433333 C7.29166667,19.8016667 8.60666667,20.3833333 10.0275,20.67 C10.6825,20.8016667 11.3533333,20.87 12.0183333,20.87 C12.6341667,20.87 13.2525,20.8141667 13.8591667,20.7 C13.9325,20.6758333 14.0058333,20.6625 14.0791667,20.65 C14.0983333,20.65 14.12,20.6375 14.1408333,20.6258333 C15.5016667,20.3258333 16.7641667,19.7625 17.8975,18.9383333 L17.9216667,18.9125 L18.0341667,18.825 C20.2233333,17.1625 21.6375,14.7733333 21.9391667,12.035 L22,10.8341667 L22,4.80666667 C22,4.5975 21.9741667,4.39 21.8991667,4.18833333 L21.9133333,4.19666667 Z"/>
    </g>
</svg>