<svg width="25px" height="25px" viewBox="0 0 25 25" version="1.1" xmlns="http://www.w3.org/2000/svg">
    <path d="M23.9520898,9.06237443 C26.530309,17.6564384 24.5316895,21.3738707 15.9376256,23.9520898 C7.34356165,26.530309 3.62612935,24.5316895 1.04791017,15.9376256 C-1.530309,7.34356165 0.468310514,3.62612935 9.06237443,1.04791017 C17.6564384,-1.530309 21.3738707,0.468310514 23.9520898,9.06237443 Z M19.6150855,14.6385229 C20.2946161,14.4186747 20.6543676,13.6791855 20.4345195,12.9996549 C20.2146713,12.3201242 19.4751821,11.9603727 18.7956515,12.1802209 L17.1767697,12.7198481 L16.0975151,9.50207073 L17.7163969,8.96244346 C18.3959276,8.74259531 18.7556791,8.00310609 18.5358309,7.32357545 C18.3159828,6.64404482 17.5764936,6.28429331 16.8969629,6.50414145 L15.2780811,7.04376872 L14.7184677,5.36492833 C14.4986195,4.68539769 13.7591303,4.32564618 13.0795997,4.54549433 C12.400069,4.76534247 12.0403175,5.50483169 12.2601657,6.18436233 L12.8197791,7.86320272 L9.48208453,8.98242965 L8.92247107,7.30358926 C8.70262292,6.62405862 7.9631337,6.26430711 7.28360306,6.48415526 C6.60407243,6.7040034 6.24432091,7.44349262 6.46416906,8.12302326 L7.02378253,9.80186365 L5.40490072,10.3414909 C4.72537008,10.5613391 4.36561857,11.3008283 4.58546672,11.9803589 C4.76534247,12.5 5.26499735,12.8397653 5.78463843,12.8597515 C5.92454179,12.8797377 6.08443135,12.8397653 6.22433472,12.7997929 L7.84321653,12.2601657 L8.92247107,15.4779431 L7.30358926,16.0175703 C6.62405862,16.2374185 6.26430711,16.9769077 6.48415526,17.6564384 C6.66403101,18.1760794 7.16368589,18.5158447 7.68332697,18.5358309 C7.82323033,18.5558171 7.98311989,18.5158447 8.12302326,18.4758724 L9.74190507,17.9362451 L10.3015185,19.6150855 C10.4813943,20.1347266 10.9810492,20.4744919 11.5006902,20.4944781 C11.6405936,20.5144643 11.8004832,20.4744919 11.9403865,20.4345195 C12.6199172,20.2146713 12.9796687,19.4751821 12.7598205,18.7956515 L12.2002071,17.1168111 L15.5379017,15.9975842 L16.0975151,17.6764245 C16.2773909,18.1960656 16.7770458,18.5358309 17.2966868,18.5558171 C17.4365902,18.5758033 17.5964798,18.5358309 17.7363831,18.4958585 C18.4159138,18.2760104 18.7756653,17.5365212 18.5558171,16.8569905 L17.9962037,15.1781502 L19.6150855,14.6385229 Z M10.2924208,11.4668856 L13.627781,10.3497052 L14.7068757,13.57136 L11.3715155,14.6885403 L10.2924208,11.4668856 Z"/>
</svg>