<?xml version="1.0" encoding="UTF-8"?>
<svg width="16px" height="16px" viewBox="0 0 16 16" version="1.1" xmlns="http://www.w3.org/2000/svg" xmlns:xlink="http://www.w3.org/1999/xlink">
    <!-- Generator: Sketch 52.5 (67469) - http://www.bohemiancoding.com/sketch -->
    <title>icons/socialmedia/twitter</title>
    <desc>Created with Sketch.</desc>
    <g>
        <path d="M16,3.52794214 C15.4074074,3.78566732 14.7777778,3.96975674 14.1111111,4.0433925 C14.7962963,3.63839579 15.3148148,2.99408284 15.5555556,2.23931624 C14.9259259,2.60749507 14.2222222,2.88362919 13.4814815,3.03090072 C12.8703704,2.40499671 12.0185185,2 11.0740741,2 C9.25925926,2 7.7962963,3.45430638 7.7962963,5.25838264 C7.7962963,5.51610782 7.81481481,5.773833 7.87037037,6.01314924 C5.14814815,5.86587771 2.74074074,4.63247863 1.11111111,2.66272189 C0.833333333,3.14135437 0.666666667,3.63839579 0.666666667,4.24589086 C0.666666667,5.36883629 1.24074074,6.36291913 2.12962963,6.95200526 C1.59259259,6.93359632 1.09259259,6.78632479 0.648148148,6.54700855 L0.648148148,6.58382643 C0.648148148,8.1669954 1.77777778,9.49243918 3.27777778,9.78698225 C3,9.86061801 2.7037037,9.8974359 2.40740741,9.8974359 C2.2037037,9.8974359 2,9.87902696 1.7962963,9.84220907 C2.2037037,11.130835 3.42592593,12.0880999 4.85185185,12.1065089 C3.74074074,12.9901381 2.31481481,13.65286 0.777777778,13.65286 C0.518518519,13.65286 0.259259259,13.634451 0,13.5976331 C1.44444444,14.5180802 3.18518519,14.9230769 5.03703704,14.9230769 C11.0740741,14.9230769 14.3703704,9.95266272 14.3703704,5.64497041 L14.3703704,5.22156476 C15,4.76134122 15.5555556,4.19066404 16,3.52794214 Z"/>
    </g>
</svg>