<?xml version="1.0" encoding="UTF-8"?>
<svg width="16px" height="16px" viewBox="0 0 16 16" version="1.1" xmlns="http://www.w3.org/2000/svg" xmlns:xlink="http://www.w3.org/1999/xlink">
    <!-- Generator: Sketch 52.5 (67469) - http://www.bohemiancoding.com/sketch -->
    <title>icons/socialmedia/xing</title>
    <desc>Created with Sketch.</desc>
    <g>
        <path d="M2.23281151,3.15982693 L4.52712814,3.15982693 C4.87909717,3.15982693 5.05169235,3.3879639 5.16588675,3.59250033 C5.16588675,3.59250033 6.73384359,6.34377868 6.74322944,6.35898781 C6.6504139,6.52366592 4.26641034,10.7643897 4.26641034,10.7643897 C4.14908733,10.9773174 3.98379225,11.2101744 3.64068762,11.2101744 L1.34637099,11.2101744 C1.20819055,11.2101744 1.10494631,11.1477641 1.04654552,11.0528386 C0.98605899,10.9542415 0.982930376,10.8262755 1.04654552,10.6988331 L3.48425694,6.37209912 C3.48686412,6.36737905 3.48686412,6.36423233 3.48425694,6.35898781 L1.93298604,3.6580569 C1.86884946,3.52956602 1.85946362,3.40264853 1.91995015,3.3040514 C1.97835093,3.20860102 2.09463107,3.15982697 2.23281151,3.15982693 Z M11.8714192,0 L14.1892005,0 C14.3273809,0 14.4358395,0.0524452603 14.4942403,0.147371181 C14.5547268,0.245968271 14.5531625,0.376032516 14.4895474,0.503474498 L9.40972177,9.53717058 C9.40659316,9.54189065 9.40659316,9.54765963 9.40972177,9.5523797 L12.6441868,15.496001 C12.7083234,15.6239675 12.7098877,15.7540317 12.6488797,15.8526288 C12.5904789,15.9475547 12.4825418,16 12.3443613,16 L10.0526519,16 C9.70120427,16 9.52548047,15.7650452 9.41180751,15.5605087 C9.41180751,15.5605087 6.16013512,9.56077095 6.15179215,9.54503737 C6.31448006,9.25553953 11.2571681,0.439491281 11.2571681,0.439491281 C11.3802269,0.217123377 11.528836,0 11.8714192,0 Z"/>
    </g>
</svg>